<?xml version="1.0" encoding="utf-8"?>
<!-- Generator: Adobe Illustrator 25.2.1, SVG Export Plug-In . SVG Version: 6.00 Build 0)  -->
<svg version="1.1" id="Capa_1" xmlns="http://www.w3.org/2000/svg" xmlns:xlink="http://www.w3.org/1999/xlink" x="0px" y="0px"
	 viewBox="0 0 86.2 64.5" style="enable-background:new 0 0 86.2 64.5;" xml:space="preserve">
<style type="text/css">
	.st0{fill:#2E2E2E;}
	.st1{fill:#D37049;}
</style>
<circle class="st0" cx="43.1" cy="32.2" r="27.5"/>
<path class="st1" d="M51.4,28.8c2.3,0,4.3,0,6.1,0.5c1.6,0.5,3.6,0.8,3.6,2.8c0,2.1-2,2.4-3.6,2.9c-1.9,0.6-3.8,0.4-6.1,0.5
	c1.1,1.2,2,2.2,2.8,3.2c0.9,1,1.6,2.2,1.9,3.5c0.7,2.4-0.6,3.7-3,3c-1.8-0.5-3.2-1.6-4.6-2.8c-0.6-0.6-1.2-1.2-1.9-1.9
	c-0.5,0.9-0.2,1.7-0.3,2.4c-0.1,1.5-0.2,3.1-0.8,4.5c-0.5,1.2-0.9,2.7-2.6,2.6c-1.6,0-2-1.4-2.4-2.6c-0.4-1.1-0.6-2.2-0.7-3.3
	c-0.1-1.1,0-2.3,0-3.6c-1.3,0.5-1.9,1.5-2.7,2.2c-1.3,1.1-2.7,2.1-4.3,2.5c-2.4,0.6-3.5-0.6-2.8-3c0.8-2.7,2.7-4.5,4.8-6.7
	c-1.5-0.1-2.7-0.1-3.9-0.2c-1.6-0.1-3.1-0.4-4.4-1.2c-2-1.2-2-2.9,0-4c1.7-1,3.7-1.2,5.6-1.3c0.7,0,1.5,0,2.3,0c0-1-0.8-1.3-1.2-1.8
	c-1.5-1.6-2.8-3.3-3.3-5.4c-0.5-2,0.7-3.1,2.7-2.6c1.9,0.5,3.5,1.6,5,2.9c0.6,0.6,1.2,1.1,2.1,1.9c0.1-2,0-3.7,0.4-5.3
	c0.1-0.4,0.1-0.8,0.3-1.2c0.5-1.4,0.9-3.3,2.8-3.2c1.9,0,2.2,1.8,2.7,3.3c0.7,2,0.5,4.1,0.6,6.4c2-1.7,3.6-3.5,5.8-4.4
	c1.2-0.5,2.5-1.1,3.6,0c1,1.1,0.5,2.4,0,3.6C55,25.2,53.3,26.9,51.4,28.8z"/>
<ellipse class="st0" cx="176" cy="47" rx="77.2" ry="125.2"/>
</svg>
